<svg width="543" height="63" viewBox="0 0 543 63" fill="none" xmlns="http://www.w3.org/2000/svg">
<rect x="0.285156" y="0.28418" width="542.101" height="62.569" rx="31.2845" fill="#F2F4F8"/>
<path d="M29.36 20.5684C24.505 20.5684 20.5693 24.504 20.5693 29.359C20.5693 34.2139 24.505 38.1496 29.36 38.1496C31.4147 38.1496 33.3049 37.4446 34.8016 36.2632L38.5789 40.0405C38.9828 40.4444 39.6376 40.4444 40.0415 40.0405C40.4454 39.6366 40.4454 38.9818 40.0415 38.5779L36.2642 34.8007C37.4456 33.3039 38.1506 31.4138 38.1506 29.359C38.1506 24.504 34.2149 20.5684 29.36 20.5684Z" fill="#09244B"/>
<path d="M50.7229 37.5684V25.7357H55.8279C57.1463 25.7357 58.1662 26.0006 58.8874 26.5302C59.6199 27.0599 59.9862 27.8093 59.9862 28.7784C59.9862 29.4208 59.834 29.9617 59.5298 30.4012C59.2368 30.8407 58.8311 31.1731 58.3127 31.3985C57.8056 31.6239 57.2478 31.7366 56.6392 31.7366L56.9266 31.3309C57.6816 31.3309 58.3296 31.4492 58.8705 31.6859C59.4227 31.9112 59.8509 32.255 60.1552 32.717C60.4595 33.1678 60.6116 33.7312 60.6116 34.4074C60.6116 35.4103 60.2397 36.1879 59.496 36.7401C58.7635 37.2923 57.6535 37.5684 56.1659 37.5684H50.7229ZM51.9738 36.5372H56.149C57.1858 36.5372 57.9803 36.3626 58.5324 36.0132C59.0846 35.6526 59.3607 35.0835 59.3607 34.3059C59.3607 33.5396 59.0846 32.9818 58.5324 32.6325C57.9803 32.2719 57.1858 32.0915 56.149 32.0915H51.8386V31.0604H55.7433C56.6899 31.0604 57.4224 30.8801 57.9408 30.5195C58.4705 30.1589 58.7353 29.6236 58.7353 28.9136C58.7353 28.1924 58.4705 27.6571 57.9408 27.3078C57.4224 26.9472 56.6899 26.7669 55.7433 26.7669H51.9738V36.5372ZM66.8813 37.6529C66.1263 37.6529 65.467 37.512 64.9036 37.2303C64.3401 36.9486 63.9006 36.526 63.5851 35.9625C63.2808 35.399 63.1287 34.6947 63.1287 33.8495V28.6939H64.3288V33.7143C64.3288 34.6609 64.5599 35.3765 65.0219 35.8611C65.4952 36.3344 66.1544 36.571 66.9996 36.571C67.6194 36.571 68.1547 36.4471 68.6055 36.1992C69.0675 35.94 69.4169 35.5681 69.6535 35.0835C69.9014 34.5989 70.0254 34.0186 70.0254 33.3424V28.6939H71.2256V37.5684H70.0761V35.1342L70.2621 35.5737C69.9803 36.2273 69.5408 36.7401 68.9436 37.112C68.3576 37.4726 67.6702 37.6529 66.8813 37.6529ZM76.9538 37.6529C76.2213 37.6529 75.5283 37.5515 74.8747 37.3486C74.2211 37.1345 73.7083 36.8697 73.3364 36.5541L73.8773 35.6075C74.238 35.878 74.7 36.1146 75.2634 36.3175C75.8269 36.5091 76.4185 36.6048 77.0383 36.6048C77.8835 36.6048 78.4921 36.4753 78.8639 36.2161C79.2358 35.9456 79.4218 35.5906 79.4218 35.1511C79.4218 34.8243 79.3147 34.5708 79.1006 34.3905C78.8978 34.1989 78.6273 34.058 78.2892 33.9679C77.9511 33.8664 77.5736 33.7819 77.1567 33.7143C76.7397 33.6467 76.3228 33.5678 75.9058 33.4777C75.5001 33.3875 75.1282 33.2579 74.7901 33.0889C74.4521 32.9086 74.176 32.6663 73.9619 32.362C73.759 32.0577 73.6576 31.6521 73.6576 31.1449C73.6576 30.6604 73.7928 30.2265 74.0633 29.8434C74.3337 29.4602 74.7282 29.1616 75.2465 28.9475C75.7762 28.7221 76.4185 28.6094 77.1736 28.6094C77.7483 28.6094 78.323 28.6883 78.8978 28.846C79.4725 28.9925 79.9458 29.1897 80.3177 29.4377L79.7937 30.4012C79.3992 30.1307 78.9766 29.9391 78.5259 29.8264C78.0751 29.7025 77.6243 29.6405 77.1736 29.6405C76.3735 29.6405 75.7818 29.7814 75.3987 30.0631C75.0268 30.3336 74.8409 30.6829 74.8409 31.1111C74.8409 31.4492 74.9423 31.714 75.1451 31.9056C75.3592 32.0972 75.6353 32.2493 75.9734 32.362C76.3228 32.4634 76.7003 32.5479 77.106 32.6156C77.5229 32.6832 77.9342 32.7677 78.3399 32.8691C78.7569 32.9593 79.1344 33.0889 79.4725 33.2579C79.8218 33.4157 80.0979 33.6467 80.3008 33.951C80.5149 34.244 80.6219 34.6327 80.6219 35.1173C80.6219 35.6357 80.4754 36.0865 80.1824 36.4696C79.9007 36.8415 79.4837 37.1345 78.9316 37.3486C78.3906 37.5515 77.7314 37.6529 76.9538 37.6529ZM86.5092 37.6529C85.6302 37.6529 84.8414 37.4613 84.1427 37.0782C83.4552 36.6837 82.9143 36.1484 82.5199 35.4723C82.1255 34.7849 81.9283 34.0017 81.9283 33.1227C81.9283 32.2324 82.1255 31.4492 82.5199 30.7731C82.9143 30.0969 83.4552 29.5673 84.1427 29.1841C84.8414 28.801 85.6302 28.6094 86.5092 28.6094C87.2642 28.6094 87.946 28.7559 88.5545 29.0489C89.1631 29.3419 89.642 29.7814 89.9914 30.3674L89.0955 30.9759C88.7912 30.5251 88.4137 30.1927 87.9629 29.9786C87.5121 29.7645 87.0219 29.6574 86.4923 29.6574C85.8612 29.6574 85.2921 29.8039 84.785 30.0969C84.2779 30.3786 83.8778 30.7787 83.5848 31.2971C83.2918 31.8155 83.1453 32.424 83.1453 33.1227C83.1453 33.8214 83.2918 34.4299 83.5848 34.9483C83.8778 35.4667 84.2779 35.8724 84.785 36.1653C85.2921 36.4471 85.8612 36.5879 86.4923 36.5879C87.0219 36.5879 87.5121 36.4809 87.9629 36.2668C88.4137 36.0527 88.7912 35.7259 89.0955 35.2864L89.9914 35.8949C89.642 36.4696 89.1631 36.9091 88.5545 37.2134C87.946 37.5064 87.2642 37.6529 86.5092 37.6529ZM97.9104 37.5684V35.6075L97.8596 35.2864V32.007C97.8596 31.252 97.6455 30.6716 97.2173 30.2659C96.8003 29.8603 96.1749 29.6574 95.341 29.6574C94.7663 29.6574 94.2197 29.7532 93.7013 29.9448C93.1829 30.1364 92.7435 30.3899 92.3828 30.7054L91.8419 29.8095C92.2927 29.4264 92.8336 29.1334 93.4647 28.9306C94.0957 28.7164 94.7606 28.6094 95.4593 28.6094C96.6088 28.6094 97.4934 28.8967 98.1132 29.4715C98.7443 30.0349 99.0598 30.897 99.0598 32.0577V37.5684H97.9104ZM94.8508 37.6529C94.1859 37.6529 93.6055 37.5458 93.1097 37.3317C92.6251 37.1063 92.2532 36.8021 91.9941 36.4189C91.7349 36.0245 91.6053 35.5737 91.6053 35.0666C91.6053 34.6046 91.7123 34.1876 91.9264 33.8157C92.1518 33.4326 92.5124 33.1283 93.0083 32.9029C93.5154 32.6663 94.1915 32.5479 95.0367 32.5479H98.0963V33.4438H95.0705C94.2141 33.4438 93.6168 33.596 93.2787 33.9002C92.9519 34.2045 92.7885 34.582 92.7885 35.0328C92.7885 35.5399 92.9857 35.9456 93.3802 36.2499C93.7746 36.5541 94.3268 36.7063 95.0367 36.7063C95.7129 36.7063 96.2932 36.5541 96.7778 36.2499C97.2737 35.9343 97.6343 35.4836 97.8596 34.8976L98.1301 35.7259C97.9047 36.3118 97.5103 36.7795 96.9468 37.1289C96.3947 37.4782 95.696 37.6529 94.8508 37.6529ZM109.55 37.6529C108.716 37.6529 108.073 37.4275 107.623 36.9767C107.172 36.526 106.946 35.8893 106.946 35.0666V26.7331H108.147V34.999C108.147 35.5174 108.276 35.9174 108.535 36.1992C108.806 36.4809 109.189 36.6218 109.685 36.6218C110.215 36.6218 110.654 36.4696 111.003 36.1653L111.426 37.0274C111.189 37.2416 110.902 37.3993 110.564 37.5007C110.237 37.6022 109.899 37.6529 109.55 37.6529ZM105.358 29.6912V28.6939H110.851V29.6912H105.358ZM117.279 37.6529C116.524 37.6529 115.865 37.512 115.301 37.2303C114.738 36.9486 114.298 36.526 113.983 35.9625C113.678 35.399 113.526 34.6947 113.526 33.8495V28.6939H114.726V33.7143C114.726 34.6609 114.957 35.3765 115.419 35.8611C115.893 36.3344 116.552 36.571 117.397 36.571C118.017 36.571 118.552 36.4471 119.003 36.1992C119.465 35.94 119.814 35.5681 120.051 35.0835C120.299 34.5989 120.423 34.0186 120.423 33.3424V28.6939H121.623V37.5684H120.474V35.1342L120.66 35.5737C120.378 36.2273 119.938 36.7401 119.341 37.112C118.755 37.4726 118.068 37.6529 117.279 37.6529ZM127.351 37.6529C126.619 37.6529 125.926 37.5515 125.272 37.3486C124.619 37.1345 124.106 36.8697 123.734 36.5541L124.275 35.6075C124.636 35.878 125.098 36.1146 125.661 36.3175C126.224 36.5091 126.816 36.6048 127.436 36.6048C128.281 36.6048 128.89 36.4753 129.262 36.2161C129.633 35.9456 129.819 35.5906 129.819 35.1511C129.819 34.8243 129.712 34.5708 129.498 34.3905C129.295 34.1989 129.025 34.058 128.687 33.9679C128.349 33.8664 127.971 33.7819 127.554 33.7143C127.137 33.6467 126.72 33.5678 126.303 33.4777C125.898 33.3875 125.526 33.2579 125.188 33.0889C124.85 32.9086 124.574 32.6663 124.359 32.362C124.157 32.0577 124.055 31.6521 124.055 31.1449C124.055 30.6604 124.19 30.2265 124.461 29.8434C124.731 29.4602 125.126 29.1616 125.644 28.9475C126.174 28.7221 126.816 28.6094 127.571 28.6094C128.146 28.6094 128.721 28.6883 129.295 28.846C129.87 28.9925 130.343 29.1897 130.715 29.4377L130.191 30.4012C129.797 30.1307 129.374 29.9391 128.923 29.8264C128.473 29.7025 128.022 29.6405 127.571 29.6405C126.771 29.6405 126.179 29.7814 125.796 30.0631C125.424 30.3336 125.238 30.6829 125.238 31.1111C125.238 31.4492 125.34 31.714 125.543 31.9056C125.757 32.0972 126.033 32.2493 126.371 32.362C126.72 32.4634 127.098 32.5479 127.504 32.6156C127.92 32.6832 128.332 32.7677 128.737 32.8691C129.154 32.9593 129.532 33.0889 129.87 33.2579C130.219 33.4157 130.495 33.6467 130.698 33.951C130.912 34.244 131.019 34.6327 131.019 35.1173C131.019 35.6357 130.873 36.0865 130.58 36.4696C130.298 36.8415 129.881 37.1345 129.329 37.3486C128.788 37.5515 128.129 37.6529 127.351 37.6529ZM142.227 37.6529C141.46 37.6529 140.767 37.4782 140.148 37.1289C139.528 36.7682 139.032 36.2555 138.66 35.5906C138.299 34.9145 138.119 34.0918 138.119 33.1227C138.119 32.1535 138.299 31.3365 138.66 30.6716C139.021 29.9955 139.511 29.4827 140.131 29.1334C140.75 28.7841 141.449 28.6094 142.227 28.6094C143.072 28.6094 143.827 28.801 144.492 29.1841C145.168 29.556 145.698 30.0856 146.081 30.7731C146.464 31.4492 146.655 32.2324 146.655 33.1227C146.655 34.0242 146.464 34.8131 146.081 35.4892C145.698 36.1653 145.168 36.695 144.492 37.0782C143.827 37.4613 143.072 37.6529 142.227 37.6529ZM137.646 40.8477V28.6939H138.795V31.3647L138.677 33.1396L138.846 34.9314V40.8477H137.646ZM142.142 36.5879C142.773 36.5879 143.337 36.4471 143.833 36.1653C144.328 35.8724 144.723 35.4667 145.016 34.9483C145.309 34.4186 145.455 33.8101 145.455 33.1227C145.455 32.4353 145.309 31.8324 145.016 31.314C144.723 30.7956 144.328 30.3899 143.833 30.0969C143.337 29.8039 142.773 29.6574 142.142 29.6574C141.511 29.6574 140.942 29.8039 140.435 30.0969C139.939 30.3899 139.545 30.7956 139.252 31.314C138.97 31.8324 138.829 32.4353 138.829 33.1227C138.829 33.8101 138.97 34.4186 139.252 34.9483C139.545 35.4667 139.939 35.8724 140.435 36.1653C140.942 36.4471 141.511 36.5879 142.142 36.5879ZM149.102 37.5684V28.6939H150.251V31.1111L150.133 30.6885C150.381 30.0124 150.798 29.4996 151.384 29.1503C151.97 28.7897 152.697 28.6094 153.565 28.6094V29.7757C153.52 29.7757 153.474 29.7757 153.429 29.7757C153.384 29.7645 153.339 29.7588 153.294 29.7588C152.359 29.7588 151.626 30.0462 151.097 30.6209C150.567 31.1844 150.302 31.9901 150.302 33.0382V37.5684H149.102ZM159.289 37.6529C158.433 37.6529 157.661 37.4613 156.974 37.0782C156.297 36.6837 155.762 36.1484 155.368 35.4723C154.973 34.7849 154.776 34.0017 154.776 33.1227C154.776 32.2324 154.973 31.4492 155.368 30.7731C155.762 30.0969 156.297 29.5673 156.974 29.1841C157.65 28.801 158.422 28.6094 159.289 28.6094C160.168 28.6094 160.946 28.801 161.622 29.1841C162.31 29.5673 162.845 30.0969 163.228 30.7731C163.622 31.4492 163.82 32.2324 163.82 33.1227C163.82 34.0017 163.622 34.7849 163.228 35.4723C162.845 36.1484 162.31 36.6837 161.622 37.0782C160.935 37.4613 160.157 37.6529 159.289 37.6529ZM159.289 36.5879C159.932 36.5879 160.501 36.4471 160.997 36.1653C161.493 35.8724 161.881 35.4667 162.163 34.9483C162.456 34.4186 162.603 33.8101 162.603 33.1227C162.603 32.424 162.456 31.8155 162.163 31.2971C161.881 30.7787 161.493 30.3786 160.997 30.0969C160.501 29.8039 159.937 29.6574 159.306 29.6574C158.675 29.6574 158.112 29.8039 157.616 30.0969C157.12 30.3786 156.726 30.7787 156.433 31.2971C156.14 31.8155 155.993 32.424 155.993 33.1227C155.993 33.8101 156.14 34.4186 156.433 34.9483C156.726 35.4667 157.12 35.8724 157.616 36.1653C158.112 36.4471 158.67 36.5879 159.289 36.5879ZM169.803 37.6529C168.958 37.6529 168.197 37.4613 167.521 37.0782C166.856 36.695 166.332 36.1653 165.949 35.4892C165.566 34.8018 165.374 34.0129 165.374 33.1227C165.374 32.2211 165.566 31.4323 165.949 30.7562C166.332 30.08 166.856 29.556 167.521 29.1841C168.197 28.801 168.958 28.6094 169.803 28.6094C170.58 28.6094 171.273 28.7841 171.882 29.1334C172.502 29.4827 172.992 29.9955 173.353 30.6716C173.724 31.3365 173.91 32.1535 173.91 33.1227C173.91 34.0806 173.73 34.8976 173.369 35.5737C173.009 36.2499 172.519 36.7682 171.899 37.1289C171.29 37.4782 170.592 37.6529 169.803 37.6529ZM169.887 36.5879C170.518 36.5879 171.082 36.4471 171.578 36.1653C172.085 35.8724 172.479 35.4667 172.761 34.9483C173.054 34.4186 173.2 33.8101 173.2 33.1227C173.2 32.424 173.054 31.8155 172.761 31.2971C172.479 30.7787 172.085 30.3786 171.578 30.0969C171.082 29.8039 170.518 29.6574 169.887 29.6574C169.267 29.6574 168.71 29.8039 168.214 30.0969C167.718 30.3786 167.324 30.7787 167.031 31.2971C166.738 31.8155 166.591 32.424 166.591 33.1227C166.591 33.8101 166.738 34.4186 167.031 34.9483C167.324 35.4667 167.718 35.8724 168.214 36.1653C168.71 36.4471 169.267 36.5879 169.887 36.5879ZM173.234 37.5684V34.8976L173.353 33.1058L173.183 31.314V25.0258H174.384V37.5684H173.234ZM181.394 37.6529C180.639 37.6529 179.98 37.512 179.416 37.2303C178.853 36.9486 178.414 36.526 178.098 35.9625C177.794 35.399 177.642 34.6947 177.642 33.8495V28.6939H178.842V33.7143C178.842 34.6609 179.073 35.3765 179.535 35.8611C180.008 36.3344 180.667 36.571 181.513 36.571C182.132 36.571 182.668 36.4471 183.118 36.1992C183.58 35.94 183.93 35.5681 184.166 35.0835C184.414 34.5989 184.538 34.0186 184.538 33.3424V28.6939H185.738V37.5684H184.589V35.1342L184.775 35.5737C184.493 36.2273 184.054 36.7401 183.456 37.112C182.87 37.4726 182.183 37.6529 181.394 37.6529ZM192.768 37.6529C191.889 37.6529 191.1 37.4613 190.402 37.0782C189.714 36.6837 189.173 36.1484 188.779 35.4723C188.385 34.7849 188.187 34.0017 188.187 33.1227C188.187 32.2324 188.385 31.4492 188.779 30.7731C189.173 30.0969 189.714 29.5673 190.402 29.1841C191.1 28.801 191.889 28.6094 192.768 28.6094C193.523 28.6094 194.205 28.7559 194.814 29.0489C195.422 29.3419 195.901 29.7814 196.25 30.3674L195.355 30.9759C195.05 30.5251 194.673 30.1927 194.222 29.9786C193.771 29.7645 193.281 29.6574 192.751 29.6574C192.12 29.6574 191.551 29.8039 191.044 30.0969C190.537 30.3786 190.137 30.7787 189.844 31.2971C189.551 31.8155 189.404 32.424 189.404 33.1227C189.404 33.8214 189.551 34.4299 189.844 34.9483C190.137 35.4667 190.537 35.8724 191.044 36.1653C191.551 36.4471 192.12 36.5879 192.751 36.5879C193.281 36.5879 193.771 36.4809 194.222 36.2668C194.673 36.0527 195.05 35.7259 195.355 35.2864L196.25 35.8949C195.901 36.4696 195.422 36.9091 194.814 37.2134C194.205 37.5064 193.523 37.6529 192.768 37.6529ZM201.513 37.6529C200.679 37.6529 200.037 37.4275 199.586 36.9767C199.135 36.526 198.91 35.8893 198.91 35.0666V26.7331H200.11V34.999C200.11 35.5174 200.24 35.9174 200.499 36.1992C200.769 36.4809 201.153 36.6218 201.648 36.6218C202.178 36.6218 202.618 36.4696 202.967 36.1653L203.39 37.0274C203.153 37.2416 202.866 37.3993 202.527 37.5007C202.201 37.6022 201.863 37.6529 201.513 37.6529ZM197.321 29.6912V28.6939H202.815V29.6912H197.321ZM208.878 37.6529C208.022 37.6529 207.25 37.4613 206.562 37.0782C205.886 36.6837 205.351 36.1484 204.956 35.4723C204.562 34.7849 204.365 34.0017 204.365 33.1227C204.365 32.2324 204.562 31.4492 204.956 30.7731C205.351 30.0969 205.886 29.5673 206.562 29.1841C207.238 28.801 208.01 28.6094 208.878 28.6094C209.757 28.6094 210.535 28.801 211.211 29.1841C211.898 29.5673 212.434 30.0969 212.817 30.7731C213.211 31.4492 213.408 32.2324 213.408 33.1227C213.408 34.0017 213.211 34.7849 212.817 35.4723C212.434 36.1484 211.898 36.6837 211.211 37.0782C210.523 37.4613 209.746 37.6529 208.878 37.6529ZM208.878 36.5879C209.52 36.5879 210.09 36.4471 210.585 36.1653C211.081 35.8724 211.47 35.4667 211.752 34.9483C212.045 34.4186 212.191 33.8101 212.191 33.1227C212.191 32.424 212.045 31.8155 211.752 31.2971C211.47 30.7787 211.081 30.3786 210.585 30.0969C210.09 29.8039 209.526 29.6574 208.895 29.6574C208.264 29.6574 207.7 29.8039 207.205 30.0969C206.709 30.3786 206.314 30.7787 206.021 31.2971C205.728 31.8155 205.582 32.424 205.582 33.1227C205.582 33.8101 205.728 34.4186 206.021 34.9483C206.314 35.4667 206.709 35.8724 207.205 36.1653C207.7 36.4471 208.258 36.5879 208.878 36.5879ZM218.242 37.6529C217.509 37.6529 216.816 37.5515 216.163 37.3486C215.509 37.1345 214.996 36.8697 214.625 36.5541L215.165 35.6075C215.526 35.878 215.988 36.1146 216.552 36.3175C217.115 36.5091 217.707 36.6048 218.326 36.6048C219.172 36.6048 219.78 36.4753 220.152 36.2161C220.524 35.9456 220.71 35.5906 220.71 35.1511C220.71 34.8243 220.603 34.5708 220.389 34.3905C220.186 34.1989 219.915 34.058 219.577 33.9679C219.239 33.8664 218.862 33.7819 218.445 33.7143C218.028 33.6467 217.611 33.5678 217.194 33.4777C216.788 33.3875 216.416 33.2579 216.078 33.0889C215.74 32.9086 215.464 32.6663 215.25 32.362C215.047 32.0577 214.946 31.6521 214.946 31.1449C214.946 30.6604 215.081 30.2265 215.351 29.8434C215.622 29.4602 216.016 29.1616 216.535 28.9475C217.064 28.7221 217.707 28.6094 218.462 28.6094C219.036 28.6094 219.611 28.6883 220.186 28.846C220.761 28.9925 221.234 29.1897 221.606 29.4377L221.082 30.4012C220.687 30.1307 220.265 29.9391 219.814 29.8264C219.363 29.7025 218.912 29.6405 218.462 29.6405C217.662 29.6405 217.07 29.7814 216.687 30.0631C216.315 30.3336 216.129 30.6829 216.129 31.1111C216.129 31.4492 216.23 31.714 216.433 31.9056C216.647 32.0972 216.923 32.2493 217.262 32.362C217.611 32.4634 217.988 32.5479 218.394 32.6156C218.811 32.6832 219.222 32.7677 219.628 32.8691C220.045 32.9593 220.423 33.0889 220.761 33.2579C221.11 33.4157 221.386 33.6467 221.589 33.951C221.803 34.244 221.91 34.6327 221.91 35.1173C221.91 35.6357 221.764 36.0865 221.471 36.4696C221.189 36.8415 220.772 37.1345 220.22 37.3486C219.679 37.5515 219.02 37.6529 218.242 37.6529ZM224.231 37.6529C223.983 37.6529 223.769 37.5627 223.588 37.3824C223.419 37.2021 223.335 36.9824 223.335 36.7232C223.335 36.4527 223.419 36.233 223.588 36.0639C223.769 35.8949 223.983 35.8104 224.231 35.8104C224.479 35.8104 224.687 35.8949 224.856 36.0639C225.036 36.233 225.127 36.4527 225.127 36.7232C225.127 36.9824 225.036 37.2021 224.856 37.3824C224.687 37.5627 224.479 37.6529 224.231 37.6529ZM227.813 37.6529C227.565 37.6529 227.351 37.5627 227.17 37.3824C227.001 37.2021 226.917 36.9824 226.917 36.7232C226.917 36.4527 227.001 36.233 227.17 36.0639C227.351 35.8949 227.565 35.8104 227.813 35.8104C228.061 35.8104 228.269 35.8949 228.438 36.0639C228.619 36.233 228.709 36.4527 228.709 36.7232C228.709 36.9824 228.619 37.2021 228.438 37.3824C228.269 37.5627 228.061 37.6529 227.813 37.6529ZM231.395 37.6529C231.147 37.6529 230.933 37.5627 230.753 37.3824C230.584 37.2021 230.499 36.9824 230.499 36.7232C230.499 36.4527 230.584 36.233 230.753 36.0639C230.933 35.8949 231.147 35.8104 231.395 35.8104C231.643 35.8104 231.851 35.8949 232.02 36.0639C232.201 36.233 232.291 36.4527 232.291 36.7232C232.291 36.9824 232.201 37.2021 232.02 37.3824C231.851 37.5627 231.643 37.6529 231.395 37.6529Z" fill="#09244B"/>
</svg>
